<svg width="608.4" height="96" viewBox="0 0 608.4 96" xmlns="http://www.w3.org/2000/svg"><g id="svgGroup" stroke-linecap="round" fill-rule="evenodd" font-size="9pt" stroke="#000" stroke-width="0.25mm" fill="#000" style="stroke:#000;stroke-width:0.25mm;fill:#000"><path d="M 326 74 L 317 74 L 317 22 L 325.7 22 L 325.7 30.7 Q 328.5 26.5 332.8 23.65 A 17.205 17.205 0 0 1 342.002 20.809 A 20.858 20.858 0 0 1 342.6 20.8 A 20.994 20.994 0 0 1 347.017 21.24 Q 350.003 21.882 352.285 23.463 A 13.128 13.128 0 0 1 352.75 23.8 A 15.751 15.751 0 0 1 358.198 31.489 A 19.154 19.154 0 0 1 358.3 31.8 Q 361.4 27.2 365.65 24 A 15.669 15.669 0 0 1 372.441 21.116 A 21.446 21.446 0 0 1 376.2 20.8 A 21.437 21.437 0 0 1 381.088 21.322 Q 384.674 22.162 387.163 24.351 A 12.994 12.994 0 0 1 388.85 26.15 A 18.992 18.992 0 0 1 392.261 33.422 Q 393 36.472 393 40.1 L 393 74 L 384 74 L 384 40.8 A 19.042 19.042 0 0 0 383.663 37.111 Q 383.227 34.905 382.228 33.161 A 10.982 10.982 0 0 0 381.5 32.05 A 7.974 7.974 0 0 0 375.687 28.754 A 10.678 10.678 0 0 0 374.6 28.7 A 11.926 11.926 0 0 0 367.841 30.827 A 15.996 15.996 0 0 0 366.25 32.05 Q 362.4 35.4 359.5 39.9 L 359.5 74 L 350.5 74 L 350.5 40.8 A 19.042 19.042 0 0 0 350.163 37.111 Q 349.727 34.905 348.728 33.161 A 10.982 10.982 0 0 0 348 32.05 A 7.974 7.974 0 0 0 342.187 28.754 A 10.678 10.678 0 0 0 341.1 28.7 A 12.02 12.02 0 0 0 334.781 30.528 A 16.244 16.244 0 0 0 332.8 31.95 Q 328.9 35.2 326 39.6 L 326 74 Z M 9.5 74 L 0 74 L 0 4 L 9.5 4 L 9.5 33.9 L 44 33.9 L 44 4 L 53.5 4 L 53.5 74 L 44 74 L 44 42.1 L 9.5 42.1 L 9.5 74 Z M 220.5 69 L 214.3 75 L 187.4 47.3 L 187.4 74 L 178.4 74 L 178.4 0 L 187.4 0 L 187.4 42.3 L 210.9 21 L 216.1 26.7 L 196 44.5 L 220.5 69 Z M 266.8 74 L 257.8 74 L 257.8 59.1 L 227.9 59.1 L 227.9 51.9 L 248.8 3.3 L 256.6 6.6 L 237.7 50.9 L 257.8 50.9 L 257.8 31 L 266.8 31 L 266.8 50.9 L 275.1 50.9 L 275.1 59.1 L 266.8 59.1 L 266.8 74 Z M 419.4 96 L 410.4 96 L 410.4 35.3 A 11.015 11.015 0 0 0 410.273 33.564 Q 409.942 31.498 408.75 30.45 A 5.718 5.718 0 0 0 405.96 29.128 A 7.991 7.991 0 0 0 404.5 29 L 406.4 22 Q 412.262 22 415.322 24.964 A 10.15 10.15 0 0 1 417.9 29.3 Q 418.855 27.867 420.952 25.977 A 38.58 38.58 0 0 1 421.15 25.8 A 18.902 18.902 0 0 1 423.851 23.816 A 25.569 25.569 0 0 1 426.75 22.3 A 16.955 16.955 0 0 1 431.309 21.011 A 21.886 21.886 0 0 1 434.4 20.8 Q 440.4 20.8 445.65 23.95 A 22.329 22.329 0 0 1 452.828 30.917 A 27.464 27.464 0 0 1 454.1 33.05 Q 457.3 39 457.3 47.5 Q 457.3 55.8 454.1 62.05 A 27.846 27.846 0 0 1 450.166 67.882 A 23.029 23.029 0 0 1 445.75 71.75 Q 440.6 75.2 434.6 75.2 Q 430 75.2 426 73.35 A 30.352 30.352 0 0 1 422.584 71.511 Q 420.791 70.384 419.4 69.1 L 419.4 96 Z M 579.7 56.1 L 579.7 31.7 L 570.7 31.7 L 570.7 23.9 L 579.9 23.9 L 581.8 7.5 L 588.7 7.5 L 588.7 23.9 L 603.1 23.9 L 603.1 31.7 L 588.7 31.7 L 588.7 56.8 A 21.559 21.559 0 0 0 588.868 59.596 Q 589.341 63.202 591.15 64.9 Q 593.6 67.2 597 67.2 Q 599.5 67.2 601.75 66.4 Q 604 65.6 605.9 64.5 L 608.4 71.7 A 18.546 18.546 0 0 1 606.782 72.556 Q 605.98 72.935 605.034 73.308 A 43.365 43.365 0 0 1 603 74.05 Q 599.6 75.2 595.9 75.2 Q 588.4 75.2 584.05 70.25 A 16.116 16.116 0 0 1 580.822 64.348 Q 580.059 61.917 579.815 58.98 A 34.777 34.777 0 0 1 579.7 56.1 Z M 167.1 23.9 L 164.4 31.5 A 30.422 30.422 0 0 0 161.496 30.224 A 23.42 23.42 0 0 0 159.05 29.45 A 20.543 20.543 0 0 0 156.007 28.924 A 26.355 26.355 0 0 0 153.4 28.8 A 15.889 15.889 0 0 0 146.147 30.443 A 16.132 16.132 0 0 0 141.65 33.85 Q 136.9 38.9 136.9 47.8 A 25.192 25.192 0 0 0 137.605 53.86 A 21.45 21.45 0 0 0 138.9 57.6 A 18.564 18.564 0 0 0 141.81 62.177 A 16.275 16.275 0 0 0 144.45 64.6 Q 148 67.2 152.8 67.2 Q 155.965 67.2 158.368 66.61 A 15.08 15.08 0 0 0 159.3 66.35 Q 161.989 65.503 165.076 63.912 A 49.095 49.095 0 0 0 165.1 63.9 L 167.9 71.5 Q 164.8 73.2 160.95 74.2 Q 157.1 75.2 152.2 75.2 A 26.803 26.803 0 0 1 145.161 74.31 A 22.074 22.074 0 0 1 139.25 71.75 Q 133.7 68.3 130.7 62.15 Q 127.7 56 127.7 48 Q 127.7 40.5 130.75 34.3 Q 133.8 28.1 139.5 24.45 A 23.067 23.067 0 0 1 149.168 21.029 A 29.608 29.608 0 0 1 152.9 20.8 Q 157.3 20.8 160.65 21.6 Q 164 22.4 167.1 23.9 Z M 566.4 23.9 L 563.7 31.5 A 30.422 30.422 0 0 0 560.796 30.224 A 23.42 23.42 0 0 0 558.35 29.45 A 20.543 20.543 0 0 0 555.307 28.924 A 26.355 26.355 0 0 0 552.7 28.8 A 15.889 15.889 0 0 0 545.447 30.443 A 16.132 16.132 0 0 0 540.95 33.85 Q 536.2 38.9 536.2 47.8 A 25.192 25.192 0 0 0 536.905 53.86 A 21.45 21.45 0 0 0 538.2 57.6 A 18.564 18.564 0 0 0 541.11 62.177 A 16.275 16.275 0 0 0 543.75 64.6 Q 547.3 67.2 552.1 67.2 Q 555.265 67.2 557.668 66.61 A 15.08 15.08 0 0 0 558.6 66.35 Q 561.289 65.503 564.376 63.912 A 49.095 49.095 0 0 0 564.4 63.9 L 567.2 71.5 Q 564.1 73.2 560.25 74.2 Q 556.4 75.2 551.5 75.2 A 26.803 26.803 0 0 1 544.461 74.31 A 22.074 22.074 0 0 1 538.55 71.75 Q 533 68.3 530 62.15 Q 527 56 527 48 Q 527 40.5 530.05 34.3 Q 533.1 28.1 538.8 24.45 A 23.067 23.067 0 0 1 548.468 21.029 A 29.608 29.608 0 0 1 552.2 20.8 Q 556.6 20.8 559.95 21.6 Q 563.3 22.4 566.4 23.9 Z M 106.1 26.2 L 106.1 22 L 114.3 22 L 114.3 61.4 A 12.15 12.15 0 0 0 114.402 63.036 Q 114.734 65.47 116.15 66.35 Q 118 67.5 120.2 67.5 L 118.3 74.5 A 17.722 17.722 0 0 1 114.035 74.028 Q 108.398 72.628 106.803 67.08 A 13.59 13.59 0 0 1 106.7 66.7 A 21.307 21.307 0 0 1 103.59 70.126 A 28.498 28.498 0 0 1 100.45 72.55 Q 96.5 75.2 90.4 75.2 Q 83.9 75.2 78.6 71.9 A 22.947 22.947 0 0 1 71.187 64.373 A 27.923 27.923 0 0 1 70.15 62.55 A 27.228 27.228 0 0 1 67.52 54.608 A 36.644 36.644 0 0 1 67 48.3 A 33.142 33.142 0 0 1 67.997 40.031 A 27.968 27.968 0 0 1 70.15 34.3 Q 73.3 28.1 78.85 24.45 A 22.297 22.297 0 0 1 90.045 20.844 A 27.388 27.388 0 0 1 91.6 20.8 A 22.584 22.584 0 0 1 96.394 21.29 A 18.703 18.703 0 0 1 99.75 22.35 A 26.002 26.002 0 0 1 104.037 24.644 A 22.103 22.103 0 0 1 106.1 26.2 Z M 505.4 26.2 L 505.4 22 L 513.6 22 L 513.6 61.4 A 12.15 12.15 0 0 0 513.702 63.036 Q 514.034 65.47 515.45 66.35 Q 517.3 67.5 519.5 67.5 L 517.6 74.5 A 17.722 17.722 0 0 1 513.335 74.028 Q 507.698 72.628 506.103 67.08 A 13.59 13.59 0 0 1 506 66.7 A 21.307 21.307 0 0 1 502.89 70.126 A 28.498 28.498 0 0 1 499.75 72.55 Q 495.8 75.2 489.7 75.2 Q 483.2 75.2 477.9 71.9 A 22.947 22.947 0 0 1 470.487 64.373 A 27.923 27.923 0 0 1 469.45 62.55 A 27.228 27.228 0 0 1 466.82 54.608 A 36.644 36.644 0 0 1 466.3 48.3 A 33.142 33.142 0 0 1 467.297 40.031 A 27.968 27.968 0 0 1 469.45 34.3 Q 472.6 28.1 478.15 24.45 A 22.297 22.297 0 0 1 489.345 20.844 A 27.388 27.388 0 0 1 490.9 20.8 A 22.584 22.584 0 0 1 495.694 21.29 A 18.703 18.703 0 0 1 499.05 22.35 A 26.002 26.002 0 0 1 503.337 24.644 A 22.103 22.103 0 0 1 505.4 26.2 Z M 300 74 L 290.5 74 L 290.5 4 L 300 4 L 300 74 Z M 105.3 60.7 L 105.3 32.8 Q 102.6 30.9 99.35 29.75 Q 96.1 28.6 92.5 28.6 A 15.924 15.924 0 0 0 87.529 29.354 A 14.024 14.024 0 0 0 84.05 31.05 A 16.301 16.301 0 0 0 79.031 36.474 A 19.962 19.962 0 0 0 78.3 37.85 A 20.663 20.663 0 0 0 76.547 43.527 A 27.678 27.678 0 0 0 76.2 48 Q 76.2 53.6 78.3 57.95 A 17.602 17.602 0 0 0 81.406 62.496 A 15.697 15.697 0 0 0 84.1 64.75 Q 87.8 67.2 92.4 67.2 Q 96.2 67.2 99.6 65.35 Q 103 63.5 105.3 60.7 Z M 504.6 60.7 L 504.6 32.8 Q 501.9 30.9 498.65 29.75 Q 495.4 28.6 491.8 28.6 A 15.924 15.924 0 0 0 486.829 29.354 A 14.024 14.024 0 0 0 483.35 31.05 A 16.301 16.301 0 0 0 478.331 36.474 A 19.962 19.962 0 0 0 477.6 37.85 A 20.663 20.663 0 0 0 475.847 43.527 A 27.678 27.678 0 0 0 475.5 48 Q 475.5 53.6 477.6 57.95 A 17.602 17.602 0 0 0 480.706 62.496 A 15.697 15.697 0 0 0 483.4 64.75 Q 487.1 67.2 491.7 67.2 Q 495.5 67.2 498.9 65.35 Q 502.3 63.5 504.6 60.7 Z M 419.4 35.4 L 419.4 61 Q 422 63.7 425.4 65.45 Q 428.8 67.2 432.8 67.2 Q 439.494 67.2 443.717 62.016 A 17.38 17.38 0 0 0 443.85 61.85 A 18.792 18.792 0 0 0 447.344 54.544 Q 448.005 51.855 448.088 48.708 A 34.555 34.555 0 0 0 448.1 47.8 Q 448.1 41.8 445.95 37.5 Q 443.8 33.2 440.25 30.9 Q 436.7 28.6 432.4 28.6 A 14.741 14.741 0 0 0 426.773 29.663 A 14.054 14.054 0 0 0 424.65 30.75 Q 421.2 32.9 419.4 35.4 Z" vector-effect="non-scaling-stroke"/></g></svg>